<?xml version="1.0" encoding="UTF-8"?><svg xmlns="http://www.w3.org/2000/svg" viewBox="0 0 499.55 464.39">
  <defs>
    <style>
      .d {
        fill: white;
      }
    </style>
  </defs>
  <g id="a" />
  <g id="b">
    <g id="c">
      <g>
        <polygon class="d" points="264.55 251.68 222.91 202.79 0 464.39 83.29 464.39 221.86 301.81 264.55 251.68" />
        <polygon class="d" points="499.55 167.63 499.55 98.37 429.63 98.37 429.63 0 360.38 0 360.38 .02 221.85 .02 221.85 69.27 360.38 69.27 360.38 364.07 303.16 296.96 260.46 347.1 360.38 464.39 429.63 464.39 429.63 445.38 429.63 272.02 499.55 272.02 499.55 202.77 429.63 202.77 429.63 167.63 499.55 167.63" />
        <polygon class="d" points="160.54 464.39 283.18 464.39 221.86 392.44 160.54 464.39" />
      </g>
    </g>
  </g>
</svg>